<?xml version="1.0" encoding="utf-8"?>
<!-- Generator: Adobe Illustrator 26.0.0, SVG Export Plug-In . SVG Version: 6.00 Build 0)  -->
<svg version="1.1" id="Layer_1" xmlns="http://www.w3.org/2000/svg" xmlns:xlink="http://www.w3.org/1999/xlink" x="0px" y="0px"
	 viewBox="0 0 1500 1500" style="enable-background:new 0 0 1500 1500;" xml:space="preserve">
<style type="text/css">
	.st0{fill:#666666;}
</style>
<g>
	<path d="M251.76,1052c-20.01,0-37.08-6.93-51.34-20.67c-14.26-13.73-21.39-30.28-21.39-49.44c0-19.23,7.13-35.78,21.39-49.58
		c14.26-13.87,31.39-20.73,51.34-20.73c13.47,0,25.83,3.27,37.08,9.75c11.18,6.47,20.28,15.44,27.27,26.75
		c-6.21,3.47-12.49,6.74-18.97,9.94c-5.1,2.03-9.29,2.68-12.62,1.96c-3.27-0.72-7.19-2.94-11.84-6.54
		c-5.89-4.64-12.88-6.93-20.93-6.93c-9.48,0-17,3.4-22.63,10.14c-5.62,6.8-8.44,15.17-8.44,25.18c0,9.29,2.75,17.33,8.24,24.07
		c5.49,6.74,12.69,10.53,21.52,11.31c7.33,0.59,14-0.59,19.88-3.66c5.95-3.07,9.61-7.59,10.99-13.47h-20.54
		c-5.69,0-10.01-1.5-13.08-4.58c-3.01-3.01-4.51-7.39-4.51-13.08v-10.27h78.42c0.72,5.95,0.72,12.75,0,20.47
		c-1.77,17-9.03,31.13-21.84,42.38C286.94,1046.31,270.92,1052,251.76,1052L251.76,1052z"/>
	<path d="M317.1,1049.71l72.07-136.04h12.3l72.07,136.04h-31.92c-9.35,0-15.96-4.19-19.88-12.43l-3.34-6.93H372.3l-3.4,6.93
		c-3.99,8.24-10.6,12.43-19.88,12.43H317.1z M384.2,1001.57h22.3l-11.18-27.14L384.2,1001.57z"/>
	<path d="M489.89,1049.71V946.9h-35.32v-15.17c0-5.17,1.77-9.48,5.17-12.95c3.4-3.4,7.72-5.1,12.95-5.1h93.98v15.24
		c0,5.17-1.7,9.48-5.1,12.88c-3.4,3.4-7.72,5.1-12.95,5.1h-17.27v84.76c0,5.17-1.7,9.55-5.1,12.95c-3.4,3.4-7.72,5.1-12.95,5.1
		H489.89L489.89,1049.71z"/>
	<path d="M546.99,1049.71l72.07-136.04h12.36l72.07,136.04h-31.98c-9.29,0-15.96-4.19-19.88-12.43l-3.34-6.93h-46.11l-3.4,6.93
		c-3.99,8.24-10.6,12.43-19.88,12.43H546.99z M614.09,1001.57h22.3l-11.12-27.14L614.09,1001.57z"/>
	<path class="st0" d="M847.39,921.98c3.2-5.56,8.04-8.31,14.58-8.31h20.73l-51.93,84.57v39.18c0,8.18-4.12,12.3-12.3,12.3h-13.67
		v-51.47l-51.6-84.57h20.73c6.61,0,11.51,2.75,14.72,8.37l29.1,49.44L847.39,921.98z"/>
	<path class="st0" d="M914.1,913.67c8.18,0,12.23,4.06,12.23,12.23v123.81h-13.8c-8.18,0-12.23-4.12-12.23-12.3V913.67H914.1z"/>
	<path class="st0" d="M957.92,1049.71V913.67h100v11.51c0,7.65-4.12,11.51-12.3,11.51h-61.87v34.08h58.41v10.66
		c0,8.18-4.12,12.3-12.36,12.36h-46.04v32.83h61.68c3.53,0,6.54,1.18,8.89,3.53c2.42,2.42,3.6,5.36,3.6,8.89v10.66H957.92
		L957.92,1049.71z"/>
	<path class="st0" d="M1110.83,1026.62h59.65c8.18,0,12.23,4.12,12.23,12.3v10.79h-97.91v-136.1h13.67c8.18,0,12.3,4.12,12.36,12.3
		V1026.62L1110.83,1026.62z"/>
	<path class="st0" d="M1199.06,1049.71V913.67h53.76c21.52,0,38.26,6.02,50.23,18.18c11.97,12.1,17.92,28.71,17.92,49.84
		c0,21.06-5.89,37.67-17.72,49.84c-11.84,12.1-28.65,18.18-50.43,18.18H1199.06z M1225.16,1026.3h27.67
		c27.99,0,41.99-14.85,41.99-44.47c0-29.89-14-44.8-41.99-44.74h-27.67V1026.3z"/>
	<path d="M869.75,448v82.28l0,0v0.07h-0.07l-36.36,36.36c-1.05-1.05-2.09-2.09-3.27-3.14c-0.72-0.72-1.44-1.37-2.22-2.03
		c-0.85-0.78-1.77-1.5-2.62-2.22c-0.13-0.13-0.2-0.2-0.33-0.33c-0.98-0.78-1.96-1.5-2.94-2.29c-0.46-0.39-0.98-0.78-1.5-1.18h-0.07
		c0,0,0,0-0.07-0.07c-0.78-0.59-1.64-1.18-2.49-1.77c-0.26-0.2-0.52-0.39-0.78-0.59c-0.98-0.65-1.96-1.31-2.94-1.9l0,0
		c-0.72-0.46-1.44-0.92-2.16-1.37c-0.72-0.46-1.44-0.85-2.16-1.31c-0.72-0.39-1.44-0.78-2.16-1.18c-0.72-0.46-1.44-0.85-2.22-1.24
		c-0.52-0.26-1.05-0.52-1.5-0.78c-0.46-0.26-0.98-0.46-1.44-0.65c-0.52-0.26-0.98-0.52-1.44-0.72c-0.33-0.13-0.59-0.26-0.85-0.39
		c-0.26-0.13-0.52-0.26-0.78-0.33c-0.39-0.2-0.78-0.39-1.18-0.52c-0.39-0.2-0.78-0.39-1.18-0.52c-0.92-0.39-1.77-0.78-2.68-1.11
		c-0.78-0.33-1.5-0.59-2.29-0.92c-0.78-0.26-1.5-0.52-2.29-0.78c-1.96-0.72-3.99-1.31-6.02-1.9c-0.13-0.07-0.26-0.07-0.39-0.13
		c-0.39-0.07-0.78-0.2-1.24-0.33c-0.85-0.2-1.7-0.46-2.62-0.65c-0.2-0.07-0.46-0.13-0.65-0.2c-1.11-0.26-2.29-0.52-3.4-0.72
		c-0.59-0.13-1.18-0.26-1.83-0.33c-0.52-0.13-1.05-0.26-1.57-0.33c-0.13,0-0.26,0-0.39-0.07c-0.85-0.13-1.77-0.26-2.62-0.39
		c-0.26-0.07-0.52-0.07-0.72-0.13c-0.78-0.07-1.5-0.2-2.22-0.26c-0.39-0.07-0.78-0.13-1.24-0.13c-0.85-0.13-1.7-0.2-2.55-0.26
		c-0.78-0.07-1.5-0.13-2.29-0.2c-0.13,0-0.26,0-0.39,0c-1.31-0.13-2.62-0.13-3.92-0.2c-1.05,0-2.16-0.07-3.27-0.07
		s-2.22,0.07-3.34,0.07c-1.24,0.07-2.55,0.07-3.86,0.2c-0.13,0-0.26,0-0.39,0c-0.78,0.07-1.57,0.13-2.29,0.2
		c-0.85,0.07-1.77,0.13-2.55,0.26c-0.46,0-0.85,0.07-1.31,0.13c-0.65,0.07-1.31,0.13-1.96,0.26c-0.39,0-0.72,0.07-1.05,0.13
		c-0.72,0.13-1.44,0.2-2.16,0.33c-0.26,0.07-0.59,0.13-0.85,0.13c0,0,0,0-0.07,0.07c-0.92,0.13-1.77,0.33-2.68,0.46
		c-0.26,0.07-0.52,0.13-0.78,0.2c-0.85,0.13-1.7,0.33-2.55,0.52c-1.05,0.26-2.09,0.52-3.07,0.78c-0.85,0.2-1.64,0.46-2.49,0.65
		c-0.52,0.13-0.98,0.33-1.5,0.46c-0.65,0.2-1.24,0.39-1.9,0.59c-0.46,0.13-0.92,0.26-1.37,0.46c-0.52,0.13-0.98,0.33-1.44,0.46
		c-0.26,0.13-0.52,0.2-0.78,0.33c-0.59,0.2-1.11,0.39-1.7,0.59c-0.13,0.07-0.33,0.13-0.52,0.2c-0.39,0.13-0.78,0.33-1.24,0.46
		c-0.65,0.33-1.37,0.59-2.03,0.85c-0.85,0.33-1.7,0.72-2.55,1.11c-0.59,0.26-1.11,0.52-1.7,0.78c-1.77,0.78-3.53,1.64-5.23,2.55
		c-0.72,0.39-1.44,0.78-2.09,1.18c-0.72,0.39-1.44,0.78-2.16,1.24c-0.2,0.07-0.39,0.2-0.52,0.26c-0.65,0.39-1.31,0.78-1.96,1.18
		c-0.07,0.07-0.2,0.13-0.26,0.2c-1.05,0.59-2.03,1.24-3.07,1.96c-0.46,0.33-0.92,0.59-1.37,0.92c-0.46,0.33-0.98,0.72-1.44,1.05
		c-1.31,0.92-2.55,1.83-3.79,2.81c-0.65,0.46-1.24,0.98-1.83,1.5c-0.65,0.46-1.24,0.98-1.83,1.5c-0.59,0.46-1.18,0.92-1.7,1.44
		c-0.65,0.52-1.24,1.05-1.83,1.64c-0.59,0.46-1.11,0.98-1.64,1.5c-0.07,0.07-0.07,0.07-0.2,0.13c-0.52,0.59-1.11,1.11-1.64,1.64
		c-1.44,1.44-2.81,2.88-4.19,4.45c-0.59,0.59-1.11,1.18-1.64,1.83c-0.65,0.72-1.24,1.37-1.83,2.09c-1.18,1.44-2.29,2.88-3.4,4.38
		c-0.39,0.52-0.85,1.11-1.31,1.77c-0.26,0.39-0.59,0.85-0.92,1.31c-0.13,0.2-0.26,0.39-0.46,0.59c-0.65,1.05-1.37,2.03-2.03,3.07
		c-0.59,0.92-1.11,1.83-1.7,2.81c-0.33,0.52-0.65,1.05-0.92,1.57c-0.59,0.92-1.11,1.9-1.64,2.81c-0.52,0.92-0.98,1.9-1.44,2.81
		c-0.33,0.59-0.59,1.18-0.85,1.7c-0.33,0.72-0.65,1.37-0.98,2.03c-0.13,0.26-0.26,0.59-0.39,0.85c-0.78,1.7-1.44,3.34-2.16,5.04
		c-0.33,0.92-0.65,1.83-1.05,2.75c-0.65,1.77-1.24,3.53-1.77,5.3c-0.59,1.83-1.11,3.6-1.57,5.43c-0.13,0.72-0.33,1.37-0.52,2.09
		v0.07c-0.13,0.59-0.26,1.24-0.39,1.83c-0.07,0.39-0.2,0.78-0.26,1.18c-0.26,1.05-0.46,2.09-0.65,3.2c-0.07,0.72-0.2,1.37-0.33,2.09
		c-0.07,0.26-0.07,0.46-0.13,0.72c0,0.39-0.07,0.72-0.13,1.11c-0.07,0.46-0.13,0.92-0.2,1.44c-0.07,0.33-0.13,0.65-0.13,1.05
		c-0.13,0.72-0.2,1.44-0.26,2.16l-0.26,2.88c-0.07,0.92-0.13,1.9-0.2,2.88c-0.07,1.96-0.13,3.92-0.13,5.89
		c0,2.03,0.07,3.99,0.13,5.95c0.07,0.92,0.13,1.9,0.2,2.88l0.26,2.88c0.07,0.72,0.13,1.44,0.26,2.16c0,0.33,0.07,0.65,0.13,1.05
		c0.07,0.46,0.13,0.92,0.2,1.44c0.07,0.33,0.13,0.72,0.13,1.11c0.07,0.2,0.07,0.46,0.13,0.65c0.13,0.72,0.26,1.44,0.33,2.16
		c0.2,1.05,0.39,2.09,0.65,3.14c0.07,0.39,0.2,0.78,0.26,1.18c0.13,0.65,0.26,1.24,0.39,1.83c0,0.07,0,0.07,0,0.13
		c0.2,0.65,0.39,1.37,0.52,2.03c0.46,1.83,0.98,3.66,1.57,5.43c0.52,1.83,1.11,3.6,1.77,5.36c0.26,0.59,0.52,1.18,0.72,1.77
		c0.2,0.52,0.39,1.05,0.59,1.57c0.33,0.72,0.65,1.5,0.92,2.22c0.33,0.72,0.65,1.44,0.98,2.16c0.39,0.85,0.78,1.7,1.18,2.55
		c0.07,0.13,0.13,0.26,0.2,0.46c0.07,0.07,0.13,0.13,0.13,0.26c0.46,0.92,0.92,1.77,1.37,2.68c0.59,1.11,1.18,2.22,1.83,3.34
		c0.46,0.72,0.85,1.5,1.31,2.22c0.33,0.52,0.65,1.05,0.98,1.57c0.59,0.98,1.18,1.9,1.77,2.81c0.26,0.39,0.46,0.72,0.65,1.05
		c0.65,0.85,1.24,1.77,1.9,2.62c0.46,0.65,0.85,1.24,1.31,1.83c0.46,0.52,0.85,1.11,1.24,1.64c0.39,0.46,0.72,0.98,1.11,1.44
		c0.26,0.26,0.52,0.59,0.78,0.85c0.2,0.33,0.46,0.65,0.72,0.92c2.22,2.68,4.51,5.23,6.93,7.65c0.46,0.39,0.85,0.78,1.31,1.24
		c0.07,0,0.07,0.07,0.13,0.13c0.46,0.46,0.92,0.85,1.37,1.24c0.26,0.26,0.52,0.52,0.78,0.78v0.07
		c11.12,10.2,24.26,18.18,38.78,23.41v53.57c-1.24-0.26-2.42-0.59-3.6-0.85h-0.07c-0.39-0.13-0.78-0.26-1.11-0.33
		c-0.85-0.2-1.64-0.46-2.42-0.65c-1.18-0.33-2.35-0.72-3.53-1.05c-1.11-0.39-2.22-0.72-3.34-1.11c-0.59-0.2-1.24-0.39-1.83-0.65
		c-0.52-0.13-1.05-0.33-1.57-0.52c-0.52-0.2-0.98-0.39-1.5-0.52h-0.07c-0.85-0.33-1.77-0.72-2.62-1.05
		c-0.85-0.33-1.64-0.65-2.49-0.98c-0.78-0.33-1.5-0.65-2.29-0.98c-2.16-0.92-4.25-1.83-6.28-2.81c-0.78-0.39-1.57-0.78-2.35-1.18
		c-0.98-0.52-2.03-0.98-3.07-1.57c-0.52-0.2-0.98-0.52-1.5-0.78c-0.52-0.26-0.98-0.52-1.5-0.78c-0.39-0.2-0.72-0.39-1.05-0.59
		c-0.39-0.26-0.72-0.46-1.11-0.65c-0.65-0.39-1.37-0.78-2.09-1.18c-0.26-0.2-0.52-0.33-0.78-0.52c-0.78-0.46-1.57-0.92-2.29-1.37
		c-0.85-0.52-1.77-1.05-2.62-1.64c-0.85-0.52-1.64-1.05-2.49-1.64c-0.59-0.39-1.18-0.78-1.77-1.18c-0.46-0.33-0.92-0.65-1.44-0.98
		c-0.39-0.33-0.78-0.59-1.18-0.92c-0.78-0.52-1.5-1.05-2.22-1.57c-0.26-0.2-0.52-0.39-0.85-0.65c-0.78-0.59-1.57-1.18-2.35-1.83
		c-0.85-0.65-1.7-1.31-2.55-2.03c-0.85-0.65-1.7-1.31-2.49-2.03c-0.85-0.72-1.64-1.37-2.42-2.09c-0.85-0.72-1.64-1.44-2.42-2.16
		c-0.78-0.72-1.57-1.44-2.29-2.16c-0.2-0.13-0.39-0.33-0.52-0.46c-0.85-0.78-1.64-1.57-2.42-2.35c-2.68-2.68-5.3-5.43-7.78-8.31
		c-0.46-0.52-0.92-1.05-1.37-1.57c-1.24-1.44-2.49-2.94-3.66-4.51c-0.07,0-0.07,0-0.13-0.07c-0.39-0.46-0.72-0.98-1.11-1.5
		c-0.07,0-0.07-0.07-0.07-0.07c-1.11-1.37-2.09-2.75-3.14-4.12c-0.52-0.72-0.98-1.37-1.44-2.03c-1.31-1.9-2.62-3.79-3.86-5.76
		c-0.39-0.59-0.78-1.24-1.18-1.83c-0.46-0.78-0.98-1.57-1.44-2.29c-0.52-0.92-1.05-1.77-1.5-2.68c-0.59-0.92-1.11-1.9-1.64-2.81
		c-0.33-0.52-0.65-1.11-0.92-1.64c-0.52-1.05-1.11-2.16-1.64-3.2c-1.11-2.09-2.16-4.25-3.14-6.47c-0.52-1.11-0.98-2.16-1.5-3.27
		c-0.33-0.85-0.65-1.64-0.98-2.49c-0.39-0.85-0.72-1.77-1.11-2.62c-0.33-0.85-0.65-1.77-0.98-2.68c-0.26-0.59-0.46-1.24-0.65-1.83
		c-0.46-1.11-0.78-2.22-1.18-3.34c-0.39-1.05-0.72-2.09-1.05-3.2c-0.39-1.31-0.78-2.62-1.18-3.92c-0.26-1.05-0.59-2.16-0.85-3.2
		c-0.07-0.07-0.07-0.13-0.07-0.2c-0.26-0.98-0.52-1.96-0.72-2.94c-0.2-0.78-0.39-1.64-0.59-2.49c-0.26-0.98-0.46-2.03-0.65-3.01
		c0-0.07,0-0.13-0.07-0.2c-0.13-0.85-0.33-1.77-0.52-2.68c0-0.07,0-0.07,0-0.2c-0.13-0.59-0.26-1.18-0.33-1.77
		c-0.2-1.18-0.39-2.29-0.59-3.47c-0.13-0.92-0.26-1.83-0.39-2.81c-0.07-0.65-0.2-1.24-0.26-1.9c-0.13-0.92-0.2-1.83-0.26-2.75
		c-0.07-0.07-0.07-0.2-0.07-0.26c-0.07-0.39-0.07-0.78-0.13-1.18c0-0.33-0.07-0.78-0.07-1.18c-0.07-0.33-0.07-0.65-0.13-0.92
		c-0.07-0.78-0.13-1.57-0.2-2.29c0-0.2,0-0.33,0-0.52c-0.07-0.85-0.13-1.7-0.13-2.62c0-0.13-0.07-0.26-0.07-0.39
		c-0.07-1.24-0.13-2.49-0.13-3.73c0-0.13,0-0.39,0-0.59c-0.07-1.37-0.07-2.75-0.07-4.12s0-2.75,0.07-4.12v-0.2
		c0-1.37,0.07-2.81,0.13-4.19c0.07-1.05,0.13-2.09,0.2-3.14c0-0.33,0.07-0.65,0.07-0.98c0.07-0.52,0.07-0.98,0.13-1.5
		c0.2-2.49,0.46-5.04,0.78-7.52c0.13-1.11,0.33-2.22,0.52-3.34c0-0.2,0.07-0.39,0.07-0.59c0.13-0.98,0.33-1.96,0.46-2.94
		c0.13-0.46,0.2-0.85,0.26-1.31c0.2-1.31,0.46-2.55,0.72-3.79c0.26-1.11,0.52-2.29,0.78-3.4c0.07-0.33,0.13-0.65,0.2-0.92
		c0.13-0.72,0.33-1.44,0.52-2.09c0.26-1.11,0.52-2.22,0.85-3.34c0.13-0.46,0.2-0.92,0.39-1.31c0.2-0.98,0.52-1.9,0.78-2.88
		c0.65-2.22,1.37-4.38,2.16-6.54c0.39-1.31,0.85-2.55,1.37-3.86c0.52-1.44,1.05-2.88,1.64-4.32c0.07-0.13,0.13-0.26,0.2-0.39
		c0.52-1.24,1.05-2.55,1.57-3.79c0.13-0.26,0.26-0.52,0.39-0.78c0.26-0.72,0.59-1.44,0.98-2.16c0.33-0.78,0.72-1.64,1.18-2.49
		c0.52-1.24,1.18-2.42,1.77-3.6c1.24-2.42,2.49-4.77,3.86-7.06c0.65-1.18,1.31-2.35,2.03-3.47c1.37-2.29,2.81-4.51,4.32-6.74
		c1.5-2.22,3.01-4.38,4.64-6.47c0.92-1.24,1.83-2.42,2.75-3.6c0.65-0.85,1.37-1.7,2.03-2.49l0.26-0.33
		c0.72-0.92,1.44-1.77,2.22-2.62c1.05-1.24,2.09-2.42,3.2-3.6c0.78-0.92,1.57-1.7,2.35-2.55c0.92-0.98,1.9-1.96,2.81-2.94v-74.49
		l59.78,36.17c0.52-0.2,1.05-0.39,1.57-0.59c0.07,0,0.13-0.07,0.2-0.07c0.72-0.26,1.5-0.52,2.22-0.78c0.46-0.13,0.85-0.26,1.24-0.39
		c0.07-0.07,0.13-0.07,0.2-0.07c0.72-0.26,1.5-0.52,2.29-0.78c0.46-0.13,0.85-0.26,1.31-0.39c0.92-0.26,1.83-0.59,2.75-0.85
		c0.2,0,0.39-0.07,0.52-0.13c1.05-0.26,2.03-0.59,3.07-0.78c0,0,0,0,0-0.07c1.57-0.39,3.14-0.78,4.71-1.18
		c1.37-0.26,2.68-0.59,4.05-0.85c1.24-0.26,2.49-0.52,3.79-0.72c0.13-0.07,0.33-0.07,0.52-0.13c2.62-0.46,5.3-0.85,7.98-1.18
		c0,0,0,0,0.07,0c1.11-0.2,2.22-0.26,3.34-0.39c0.52-0.07,1.11-0.13,1.64-0.2c0.78-0.07,1.5-0.13,2.29-0.2
		c0.52-0.07,1.11-0.07,1.7-0.13c1.05-0.07,2.09-0.13,3.14-0.2c0.2,0,0.39,0,0.59,0c0.13-0.07,0.33-0.07,0.46-0.07
		c0.98-0.07,1.9-0.07,2.81-0.07c0.2,0,0.39-0.07,0.59-0.07c0.07,0,0.13,0,0.26,0c1.44,0,2.81-0.07,4.25-0.07
		c1.11,0,2.22,0.07,3.4,0.07c0.65,0,1.24,0,1.9,0.07c1.05,0,2.16,0.07,3.2,0.13c1.37,0.07,2.68,0.13,3.99,0.2
		c1.11,0.13,2.22,0.2,3.4,0.33c0.59,0.07,1.18,0.13,1.77,0.2c0.98,0.07,1.9,0.2,2.81,0.33c0.52,0.07,1.05,0.13,1.57,0.2
		c1.11,0.13,2.16,0.26,3.2,0.46c1.11,0.13,2.29,0.33,3.4,0.52c0.39,0.07,0.78,0.13,1.18,0.2c1.18,0.26,2.42,0.46,3.6,0.72
		c0.13,0,0.26,0.07,0.39,0.07c1.24,0.26,2.42,0.52,3.6,0.78c1.24,0.33,2.49,0.59,3.73,0.92c0.2,0.07,0.39,0.13,0.59,0.2
		c0.07,0,0.2,0,0.26,0.07c1.11,0.26,2.29,0.59,3.4,0.92c0.85,0.2,1.7,0.46,2.55,0.72c0.2,0.07,0.39,0.13,0.52,0.2L869.75,448z"/>
	<path class="st0" d="M861.64,621.91l-83.45,114.78l-4.32,5.89v69.65c-0.13,0-0.33,0-0.46,0.07c-0.72,0.07-1.44,0.13-2.16,0.26
		c-1.77,0.2-3.53,0.39-5.3,0.52c-0.72,0.07-1.44,0.07-2.16,0.13c-0.52,0.07-0.98,0.07-1.5,0.13c-1.44,0.07-2.94,0.13-4.45,0.2
		c-1.77,0-3.6,0.07-5.43,0.07c-1.31,0-2.62,0-3.92-0.07c-0.2,0-0.46,0-0.65,0c-2.55-0.07-5.04-0.2-7.52-0.39
		c-0.46,0-0.92-0.07-1.37-0.07c-0.92-0.07-1.77-0.13-2.68-0.26c-0.65-0.07-1.31-0.13-1.9-0.2c-1.18-0.13-2.29-0.26-3.4-0.39v-69.59
		l-4.25-5.95L643.2,621.91h51.47l57.75,79.4l57.75-79.4H861.64L861.64,621.91z"/>
	<path d="M918.41,647.61c0,1.24,0,2.42-0.07,3.66c0,0.39,0,0.85-0.07,1.31c0,1.11-0.07,2.22-0.13,3.4c0,0.72-0.07,1.44-0.07,2.22
		c-0.13,1.7-0.26,3.47-0.46,5.23c-0.07,0.78-0.13,1.64-0.26,2.42c-0.07,0.65-0.13,1.18-0.2,1.77c-0.07,0.98-0.26,1.96-0.39,2.88
		c-0.07,0.98-0.26,1.9-0.39,2.88c-0.33,2.09-0.65,4.12-1.11,6.21c-0.13,0.65-0.26,1.31-0.39,1.96c-0.2,0.92-0.39,1.9-0.59,2.88
		c-0.2,0.85-0.39,1.7-0.65,2.62c-0.13,0.52-0.26,1.11-0.39,1.7c-0.2,0.65-0.33,1.31-0.52,2.03c-0.13,0.33-0.2,0.65-0.26,0.98
		c-0.07,0.13-0.13,0.33-0.2,0.46c-0.26,0.98-0.52,1.96-0.78,2.94c-0.39,1.18-0.72,2.35-1.11,3.53c-0.39,1.05-0.72,2.16-1.11,3.2
		c-0.07,0.2-0.13,0.33-0.13,0.52c-0.39,1.11-0.78,2.16-1.18,3.2c-0.46,1.11-0.85,2.16-1.31,3.27c-0.46,1.18-0.92,2.35-1.44,3.53
		c-0.46,1.11-0.92,2.22-1.44,3.34c-0.39,0.85-0.78,1.7-1.18,2.55c-0.07,0.13-0.13,0.33-0.26,0.46c-0.07,0.2-0.13,0.39-0.26,0.59
		c-0.46,1.05-0.98,2.03-1.44,3.01c-0.59,1.05-1.11,2.16-1.7,3.2c-0.59,1.18-1.24,2.35-1.9,3.47c-0.52,0.98-1.11,1.9-1.64,2.88
		c-0.59,0.98-1.24,1.96-1.83,3.01c-0.07,0.07-0.07,0.07-0.13,0.13c-0.59,0.98-1.24,2.03-1.9,3.01c-0.65,0.98-1.31,2.03-1.96,3.01
		c-0.52,0.72-1.05,1.5-1.64,2.29c-0.85,1.18-1.7,2.35-2.62,3.6c-0.59,0.78-1.24,1.64-1.9,2.49c-0.07,0.13-0.2,0.2-0.26,0.33
		c-0.78,0.98-1.5,1.9-2.29,2.81c-0.72,0.98-1.5,1.9-2.29,2.81c-0.26,0.26-0.46,0.52-0.72,0.78c-0.72,0.92-1.5,1.77-2.29,2.62
		c-0.59,0.65-1.18,1.31-1.83,1.96c-0.78,0.85-1.64,1.77-2.49,2.62c-0.78,0.85-1.64,1.64-2.42,2.49c-0.07,0-0.13,0.07-0.2,0.13
		c-0.72,0.78-1.5,1.5-2.35,2.29c-2.55,2.35-5.17,4.71-7.85,6.93c-0.65,0.59-1.31,1.11-2.03,1.7c-0.65,0.52-1.37,1.05-2.03,1.64
		c-0.2,0.13-0.46,0.33-0.72,0.52c-0.65,0.52-1.37,1.05-2.03,1.57c-0.85,0.59-1.7,1.24-2.55,1.83c-1.44,1.05-2.88,2.09-4.38,3.07
		c-1.96,1.31-3.99,2.62-6.02,3.86c-0.72,0.39-1.44,0.85-2.22,1.31c-1.05,0.65-2.22,1.24-3.34,1.9c-1.18,0.65-2.42,1.31-3.66,1.96
		c-1.18,0.65-2.42,1.31-3.73,1.9c-0.92,0.52-1.83,0.92-2.75,1.37c-0.92,0.39-1.83,0.85-2.75,1.24c-2.09,0.92-4.12,1.83-6.21,2.62
		c-0.92,0.39-1.9,0.78-2.81,1.18c-1.05,0.39-2.09,0.78-3.14,1.11c-0.78,0.26-1.5,0.52-2.29,0.78c-0.85,0.33-1.7,0.59-2.55,0.92
		c-0.2,0-0.39,0.07-0.59,0.13c-0.85,0.26-1.77,0.59-2.62,0.78c-1.77,0.59-3.6,1.05-5.43,1.57c-1.18,0.33-2.35,0.59-3.6,0.92v-53.63
		c14.52-5.23,27.6-13.28,38.72-23.41v-0.07c0.2-0.2,0.39-0.39,0.59-0.52c0.07-0.07,0.13-0.13,0.26-0.2
		c0.26-0.26,0.52-0.52,0.78-0.78c1.18-1.11,2.35-2.29,3.53-3.47c0.46-0.52,0.92-0.98,1.37-1.5c0.46-0.46,0.92-0.98,1.31-1.44
		c0.72-0.72,1.37-1.5,2.03-2.29c0.72-0.85,1.44-1.7,2.09-2.55c0.52-0.65,1.11-1.37,1.64-2.09c0.59-0.72,1.11-1.44,1.64-2.22
		c1.24-1.64,2.42-3.34,3.53-5.1c0.59-0.85,1.11-1.7,1.64-2.55c0.13-0.26,0.33-0.52,0.46-0.78c0.2-0.26,0.39-0.59,0.52-0.92
		c0.33-0.46,0.65-0.98,0.92-1.5s0.59-1.11,0.92-1.64c0.26-0.39,0.46-0.85,0.65-1.31c0.52-0.92,1.05-1.9,1.5-2.88
		c0.2-0.33,0.33-0.65,0.52-0.98c0.2-0.52,0.46-0.98,0.65-1.44c0.39-0.78,0.72-1.5,1.05-2.29c0.33-0.85,0.72-1.64,1.05-2.49
		c0.07-0.2,0.13-0.33,0.2-0.52c0.26-0.65,0.52-1.24,0.72-1.9c0.52-1.18,0.98-2.42,1.37-3.66c0.26-0.65,0.46-1.31,0.65-1.96
		c0.33-0.92,0.59-1.83,0.85-2.75c0.07-0.2,0.13-0.33,0.2-0.52c0.33-1.18,0.65-2.42,0.98-3.66c0.2-0.78,0.39-1.5,0.59-2.29
		c0-0.13,0.07-0.26,0.07-0.39H752.42l-36.5-51.47h200.46c0.13,0.92,0.33,1.9,0.39,2.88c0.13,0.92,0.33,1.9,0.39,2.81
		c0.07,0.59,0.13,1.18,0.2,1.77c0.13,0.85,0.2,1.64,0.26,2.49c0.2,1.7,0.33,3.47,0.46,5.23c0,0.72,0.07,1.5,0.07,2.22
		c0.07,1.11,0.13,2.22,0.13,3.4c0.07,0.46,0.07,0.85,0.07,1.31C918.41,645.19,918.41,646.43,918.41,647.61L918.41,647.61z"/>
</g>
</svg>
