<?xml version="1.0" encoding="UTF-8"?>
<svg version="1.1" xmlns="http://www.w3.org/2000/svg" width="150" height="150">
<path d="M0 0 C49.5 0 99 0 150 0 C150 49.5 150 99 150 150 C100.5 150 51 150 0 150 C0 100.5 0 51 0 0 Z " fill="#010101" transform="translate(0,0)"/>
<path d="M0 0 C0.23450978 3.66556823 0.37511221 7.32919096 0.5 11 C0.60054687 12.54494141 0.60054687 12.54494141 0.703125 14.12109375 C0.89769078 21.75780069 0.89769078 21.75780069 -1.78125 25.46484375 C-3.77526311 27.4339317 -5.84822799 29.20877037 -8 31 C-8.33 31.66 -8.66 32.32 -9 33 C-11.23064047 31.92637398 -13.34194877 30.7898213 -15.453125 29.4921875 C-23.93679714 24.586824 -31.48550598 23.59326162 -41 25 C-50.94272435 28.1148603 -57.61057447 34.0681182 -62.4375 43.1875 C-65.66382246 51.25330616 -64.86073578 60.64028253 -62.03125 68.72265625 C-58.06915042 77.47229283 -51.42192885 82.79106602 -42.625 86.375 C-32.37259922 88.14265531 -22.51265678 87.3608756 -13.75 81.375 C-7.66388521 76.42233169 -4.3805579 70.35694361 -2 63 C-3.07483643 63.02094727 -4.14967285 63.04189453 -5.25708008 63.06347656 C-9.24327278 63.13585374 -13.22940739 63.18179092 -17.21606445 63.21972656 C-18.94174973 63.23984739 -20.66736678 63.26714748 -22.39282227 63.30175781 C-24.8727297 63.35025758 -27.35173628 63.37296304 -29.83203125 63.390625 C-30.60400345 63.41127014 -31.37597565 63.43191528 -32.17134094 63.45318604 C-37.49774268 63.45541947 -37.49774268 63.45541947 -39.98706055 61.19824219 C-41.46806651 57.98422008 -41.38038523 55.4868646 -41 52 C-39.79618835 50.30644226 -39.79618835 50.30644226 -38 49 C-35.66511536 48.63923645 -35.66511536 48.63923645 -32.88598633 48.65942383 C-31.32470757 48.65976372 -31.32470757 48.65976372 -29.73188782 48.66011047 C-28.04895882 48.68333626 -28.04895882 48.68333626 -26.33203125 48.70703125 C-25.18208176 48.71127609 -24.03213226 48.71552094 -22.84733582 48.71989441 C-19.16882059 48.73670811 -15.49085008 48.77436623 -11.8125 48.8125 C-9.32097144 48.82754331 -6.82943432 48.84123233 -4.33789062 48.85351562 C1.77492593 48.88662047 7.88742405 48.93684695 14 49 C14.0442707 51.2029403 14.07557156 53.40614321 14.1015625 55.609375 C14.12041504 56.83624023 14.13926758 58.06310547 14.15869141 59.32714844 C13.61271279 71.96361348 6.50979151 83.39634373 -2.4296875 91.95703125 C-12.75766014 100.16604294 -25.88594316 104.29679392 -39 103 C-51.8103499 100.24593215 -62.84317828 94.42260553 -71 84 C-78.5254952 71.9464526 -81.90206553 59.59422425 -79.375 45.4375 C-77.58152119 38.54341832 -74.36338744 31.39475984 -69.3515625 26.31640625 C-65.78794003 22.18936521 -66.21928738 17.33813056 -66.1875 12.125 C-66.16236328 11.15046875 -66.13722656 10.1759375 -66.11132812 9.171875 C-66.05272442 6.78084372 -66.01625009 4.39163153 -66 2 C-64.27009975 2.93614567 -62.54111304 3.87397958 -60.8125 4.8125 C-59.84957031 5.33457031 -58.88664062 5.85664063 -57.89453125 6.39453125 C-55 8 -55 8 -52.375 9.75 C-49.16282174 11.44062014 -47.23532233 10.47278944 -43.86328125 9.5546875 C-40.19414563 8.84388633 -36.59705915 8.79751414 -32.875 8.8125 C-32.20621826 8.81209717 -31.53743652 8.81169434 -30.84838867 8.8112793 C-27.58351308 8.84547701 -24.71425113 9.06749973 -21.52734375 9.8203125 C-16.45571343 10.07866798 -13.74383482 7.89328788 -9.6875 5.0625 C-8.2770486 4.11244842 -6.86439172 3.16566029 -5.44921875 2.22265625 C-4.83393311 1.79734619 -4.21864746 1.37203613 -3.5847168 0.93383789 C-2 0 -2 0 0 0 Z " fill="#FAFAFA" transform="translate(108,24)"/>
</svg>
