<?xml version="1.0" standalone="no"?>
<!DOCTYPE svg PUBLIC "-//W3C//DTD SVG 20010904//EN"
 "http://www.w3.org/TR/2001/REC-SVG-20010904/DTD/svg10.dtd">
<svg version="1.0" xmlns="http://www.w3.org/2000/svg"
 width="150.000000pt" height="146.000000pt" viewBox="0 0 150.000000 146.000000"
 preserveAspectRatio="xMidYMid meet">
<metadata>
Created by potrace 1.10, written by Peter Selinger 2001-2011
</metadata>
<g transform="translate(0.000000,146.000000) scale(0.100000,-0.100000)"
fill="#000000" stroke="none">
<path d="M992 1224 l-94 -57 -61 10 c-69 11 -138 9 -210 -8 -48 -11 -48 -11
-128 40 -44 28 -82 51 -85 51 -2 0 -4 -48 -4 -106 0 -105 0 -105 -35 -151
-236 -310 -44 -744 346 -779 125 -12 273 43 364 135 101 102 145 205 145 342
l0 79 -258 0 c-257 0 -259 0 -280 -23 -28 -30 -29 -80 -2 -107 19 -19 33 -20
205 -20 102 0 185 -2 185 -5 0 -24 -67 -129 -105 -164 -69 -64 -124 -85 -220
-86 -71 0 -88 4 -147 33 -73 36 -123 86 -160 161 -18 37 -23 63 -23 136 0 84
2 94 34 153 62 114 163 175 291 176 62 0 86 -5 135 -27 33 -16 70 -37 81 -48
l22 -20 48 51 49 52 5 119 c3 66 3 119 0 119 -3 0 -47 -26 -98 -56z m58 -95
c0 -65 -2 -73 -30 -101 -17 -16 -33 -28 -38 -26 -137 70 -146 73 -227 72 -149
0 -271 -77 -337 -212 -30 -60 -33 -75 -33 -157 0 -77 4 -98 27 -148 102 -217
359 -292 548 -160 60 42 124 126 142 185 10 35 9 41 -12 63 -23 25 -25 25
-191 25 -156 0 -169 1 -179 19 -7 15 -6 23 6 35 13 14 48 16 227 16 117 0 218
-4 226 -9 24 -16 8 -139 -29 -216 -112 -236 -414 -321 -635 -180 -97 62 -161
150 -190 262 -33 126 -10 243 72 366 50 76 53 85 53 142 0 34 3 65 7 68 3 4
31 -7 61 -24 l56 -31 73 12 c47 8 108 10 171 6 l97 -6 55 34 c30 19 61 35 68
35 8 1 12 -19 12 -70z"/>
</g>
</svg>
