<?xml version="1.0" encoding="UTF-8"?>
<svg version="1.1" xmlns="http://www.w3.org/2000/svg" width="150" height="146">
<path d="M0 0 C49.5 0 99 0 150 0 C150 48.18 150 96.36 150 146 C100.5 146 51 146 0 146 C0 97.82 0 49.64 0 0 Z " fill="#FDFDFD" transform="translate(0,0)"/>
<path d="M0 0 C0.23433541 3.83228532 0.37506508 7.66271317 0.5 11.5 C0.60054687 13.11648437 0.60054687 13.11648437 0.703125 14.765625 C0.89767261 22.74207719 0.89767261 22.74207719 -1.78125 26.49609375 C-3.77267745 28.46262835 -5.8410639 30.22354351 -8 32 C-8.495 32.99 -8.495 32.99 -9 34 C-11.29894595 32.85605334 -13.58950305 31.69803988 -15.875 30.52734375 C-16.90625 30.00269531 -17.9375 29.47804688 -19 28.9375 C-20.03125 28.41027344 -21.0625 27.88304688 -22.125 27.33984375 C-29.44298153 23.92942573 -36.93530303 24.05580886 -44.5625 26.5625 C-53.9377327 30.35502695 -59.92753142 35.74290274 -64 45 C-64.36351563 45.77988281 -64.72703125 46.55976562 -65.1015625 47.36328125 C-68.04592275 56.00433851 -66.37364237 65.26454491 -62.5390625 73.30859375 C-57.38512932 82.32143628 -50.76902531 86.74365823 -41 90 C-32.44445078 90.67080784 -25.44282049 90.45336464 -18 86 C-16.948125 85.401875 -15.89625 84.80375 -14.8125 84.1875 C-9.54203984 80.08825321 -6.22045852 76.03115554 -3.8203125 69.7578125 C-3.30235107 68.41807373 -3.30235107 68.41807373 -2.77392578 67.05126953 C-2.51853027 66.37435059 -2.26313477 65.69743164 -2 65 C-3.65769409 65.0314209 -3.65769409 65.0314209 -5.34887695 65.06347656 C-9.44688981 65.1358464 -13.54484614 65.18178836 -17.64331055 65.21972656 C-19.41749569 65.23984903 -21.19161446 65.2671503 -22.96557617 65.30175781 C-25.51497767 65.35024992 -28.06350295 65.37296153 -30.61328125 65.390625 C-31.40712723 65.41127014 -32.20097321 65.43191528 -33.01887512 65.45318604 C-38.49636478 65.45542073 -38.49636478 65.45542073 -40.99682617 63.19433594 C-42.48629828 59.93627428 -42.44153756 57.53230051 -42 54 C-39.98703758 51.40734371 -38.80284747 50.15729623 -35.54486084 49.51898193 C-34.17252289 49.5323056 -34.17252289 49.5323056 -32.77246094 49.54589844 C-31.21129547 49.54635162 -31.21129547 49.54635162 -29.61859131 49.54681396 C-27.94340424 49.57778168 -27.94340424 49.57778168 -26.234375 49.609375 C-24.51157318 49.61786469 -24.51157318 49.61786469 -22.75396729 49.62652588 C-19.08555426 49.64891669 -15.41811783 49.69912058 -11.75 49.75 C-9.26303494 49.77006139 -6.77605457 49.78831278 -4.2890625 49.8046875 C1.80762489 49.84879045 7.90374267 49.91573051 14 50 C14.35185642 66.14019135 12.68907251 79.55163731 1 92 C-10.01200798 102.01560164 -23.34475462 106.57135816 -38.046875 106.2734375 C-50.52688353 105.4101958 -61.36027538 99.15259022 -69.875 90.1875 C-73.86727513 85.47518953 -76.69661951 80.71780335 -79 75 C-79.31839844 74.25621094 -79.63679688 73.51242188 -79.96484375 72.74609375 C-84.0869951 61.51940504 -83.27996966 48.80653813 -78.640625 37.94140625 C-76.95721745 34.92329701 -75.02907281 32.6490017 -72.75 30.0625 C-66.53060815 22.25318843 -67.8187539 11.5116445 -68 2 C-65.63013299 3.15576201 -63.4346641 4.35510653 -61.1953125 5.76171875 C-60.18210937 6.39722656 -59.16890625 7.03273438 -58.125 7.6875 C-57.11695312 8.33074219 -56.10890625 8.97398438 -55.0703125 9.63671875 C-51.3669717 11.28107745 -49.91870021 10.69935019 -46 10 C-43.96071669 10.03089064 -41.92172021 10.11826064 -39.88671875 10.25390625 C-24.45368848 10.98375259 -11.63806633 0 0 0 Z " fill="#040404" transform="translate(109,18)"/>
</svg>
