<?xml version="1.0" standalone="no"?>
<!DOCTYPE svg PUBLIC "-//W3C//DTD SVG 20010904//EN"
 "http://www.w3.org/TR/2001/REC-SVG-20010904/DTD/svg10.dtd">
<svg version="1.0" xmlns="http://www.w3.org/2000/svg"
 width="150.000000pt" height="150.000000pt" viewBox="0 0 150.000000 150.000000"
 preserveAspectRatio="xMidYMid meet">
<metadata>
Created by potrace 1.16, written by Peter Selinger 2001-2019
</metadata>
<g transform="translate(0.000000,150.000000) scale(0.100000,-0.100000)"
fill="#000000" stroke="none">
<path d="M0 750 l0 -750 750 0 750 0 0 750 0 750 -750 0 -750 0 0 -750z m1028
233 c-52 -52 -52 -53 -73 -34 -11 11 -45 31 -75 45 -81 38 -183 37 -265 -3
-199 -94 -247 -359 -93 -513 118 -118 298 -130 427 -28 51 40 94 102 106 153
l7 27 -180 0 c-176 0 -181 1 -196 22 -9 12 -16 34 -16 48 0 14 7 36 16 48 15
22 18 22 269 22 l255 0 6 -26 c4 -14 3 -52 0 -86 -44 -388 -505 -560 -785
-293 -181 172 -197 431 -39 636 25 33 27 44 30 138 l3 101 80 -49 80 -50 60
15 c72 16 127 18 193 4 48 -11 49 -10 143 44 l94 56 3 -112 3 -112 -53 -53z"/>
</g>
</svg>
